<svg width="24" height="22" viewBox="0 0 24 22" fill="none" xmlns="http://www.w3.org/2000/svg">
<path d="M22.9031 5.78096C22.6414 4.90503 21.8703 4.21518 20.8913 3.98107C19.1167 3.55566 12.0008 3.55566 12.0008 3.55566C12.0008 3.55566 4.88501 3.55566 3.11038 3.98107C2.13134 4.21522 1.36026 4.90503 1.09855 5.78096C0.623047 7.36863 0.623047 10.6811 0.623047 10.6811C0.623047 10.6811 0.623047 13.9937 1.09855 15.5813C1.36026 16.4573 2.13134 17.1184 3.11038 17.3525C4.88501 17.7779 12.0008 17.7779 12.0008 17.7779C12.0008 17.7779 19.1167 17.7779 20.8913 17.3525C21.8703 17.1184 22.6414 16.4573 22.9031 15.5813C23.3786 13.9937 23.3786 10.6811 23.3786 10.6811C23.3786 10.6811 23.3786 7.36863 22.9031 5.78096ZM9.67355 13.6887V7.67363L15.621 10.6812L9.67355 13.6887Z" fill="white"/>
</svg>
